<?xml version="1.0" standalone="no"?><!DOCTYPE svg PUBLIC "-//W3C//DTD SVG 1.1//EN" "http://www.w3.org/Graphics/SVG/1.1/DTD/svg11.dtd"><svg t="1743961560316" class="icon" viewBox="0 0 1024 1024" version="1.1" xmlns="http://www.w3.org/2000/svg" p-id="3669" xmlns:xlink="http://www.w3.org/1999/xlink" width="200" height="200"><path d="M779.6 797.4c-12-12-31.5-12-43.5 0s-12 31.5 0 43.5l70.5 70.5H512c-220.2 0-399.4-179.2-399.4-399.3 0-220.2 179.2-399.4 399.4-399.4s399.4 179.2 399.4 399.4c0 70.3-18.4 139.3-53.4 199.7-8.4 14.7-3.5 33.5 11.3 42 14.7 8.5 33.4 3.5 41.9-11.2 40.3-69.7 61.6-149.4 61.6-230.4 0-254.1-206.7-460.8-460.8-460.8C257.9 51.2 51.2 257.9 51.2 512c0 254.1 206.7 460.8 460.8 460.8h368.6c12.4 0 23.6-7.5 28.4-19 4.8-11.5 2.2-24.7-6.6-33.5L779.6 797.4zM307.2 563.2v51.2H512l4.3 102.2h45.9l1-102.2h153.6v-51.2H563.2V512h128l-1.5-51.4H562.2l1-51h128v-51.2h-256c6.8-12.5 14.9-31.4 21.7-46.2l-51-5.1C382.1 363.9 349.8 410.6 309 447c7.9 11.4 13.6 19.9 17 25.6 4.5 6.8 7.9 11.9 10.2 15.4 7.8-7.8 15.2-15.6 22.2-23.3v98.6h-51.2z m204.8 0H409.6V512H512v51.2z m-99.3-169.1l-3.1 15.5H512l4.3 51-154.5 0.2c20.1-22.5 37.1-44.8 50.9-66.7z" fill="#c70026" p-id="3670"></path></svg>