<?xml version="1.0" standalone="no"?><!DOCTYPE svg PUBLIC "-//W3C//DTD SVG 1.1//EN" "http://www.w3.org/Graphics/SVG/1.1/DTD/svg11.dtd"><svg t="1743962394184" class="icon" viewBox="0 0 1084 1024" version="1.1" xmlns="http://www.w3.org/2000/svg" p-id="11009" xmlns:xlink="http://www.w3.org/1999/xlink" width="211.71875" height="200"><path d="M1067.855812 371.230118l-0.120471-0.150589L573.534871 15.992471a64.451765 64.451765 0 0 0-13.552942-9.758118c-18.100706-11.203765-43.821176-4.969412-57.374117 13.854118L17.502871 370.959059c-8.734118 5.993412-14.697412 15.269647-16.715295 26.202353-2.409412 13.101176 0.752941 27.346824 8.884706 39.183059 7.981176 11.715765 20.118588 19.576471 33.310118 21.62447 11.023059 1.807059 21.534118-0.752941 29.876706-7.107765l25.20847-19.968v543.081412c0 26.593882 22.046118 49.091765 48.158118 49.091765 26.081882 0 48.128-22.497882 48.128-49.091765V360.387765l346.473412-247.928471 349.906823 251.392v608.466824c0 27.105882 21.654588 49.121882 48.128 49.121882 26.503529 0 48.128-21.985882 48.128-49.091765V434.657882l23.582118 16.685177c20.389647 13.854118 47.254588 7.378824 62.584471-15.028706 15.450353-21.865412 12.8-51.139765-5.330824-65.114353z" fill="#c70026" p-id="11010"></path><path d="M404.695341 919.521882c-2.048-28.491294-10.661647-37.255529-37.135059-37.255529h-61.199058c-28.491294 0-37.104941 8.764235-37.104942 37.767529v64.39153c0 29.003294 8.734118 37.767529 37.104942 37.767529h61.199058c28.491294 0 37.135059-8.764235 37.135059-37.767529V919.491765z m0-212.329411c-2.048-27.226353-10.782118-35.478588-37.135059-35.478589h-61.199058c-28.491294 0-37.104941 8.764235-37.104942 37.76753v62.614588c0 29.003294 8.734118 37.767529 37.104942 37.767529h61.199058c28.491294 0 37.135059-8.764235 37.135059-37.767529V707.162353z m204.197647 212.329411c-2.017882-28.491294-10.631529-37.255529-37.135059-37.255529h-61.168941c-28.521412 0-37.135059 8.764235-37.135059 37.767529v64.39153c0 29.003294 8.734118 37.767529 37.135059 37.767529h61.168941c28.521412 0 37.135059-8.764235 37.135059-37.767529V919.491765z m204.077177 0c-2.017882-28.491294-10.631529-37.255529-37.104941-37.255529h-61.31953c-28.491294 0-37.135059 8.764235-37.135059 37.767529v64.39153c0 29.003294 8.734118 37.767529 37.135059 37.767529h61.31953c28.491294 0 37.104941-8.764235 37.104941-37.767529V919.491765z m-204.077177-212.329411c-2.017882-27.226353-10.631529-35.478588-37.135059-35.478589h-61.168941c-28.521412 0-37.135059 8.764235-37.135059 37.76753v62.614588c0 29.003294 8.734118 37.767529 37.135059 37.767529h61.168941c28.521412 0 37.135059-8.764235 37.135059-37.767529V707.162353z m-204.197647-208.504471c-1.927529-29.635765-9.517176-37.285647-37.135059-37.285647h-61.199058c-28.491294 0-37.104941 8.914824-37.104942 37.948235v64.361412c0 29.003294 8.734118 37.767529 37.104942 37.767529h61.199058c28.491294 0 37.135059-8.764235 37.135059-37.767529v-65.024z" fill="#c70026" p-id="11011"></path></svg>