<?xml version="1.0" standalone="no"?><!DOCTYPE svg PUBLIC "-//W3C//DTD SVG 1.1//EN" "http://www.w3.org/Graphics/SVG/1.1/DTD/svg11.dtd"><svg t="1743962258702" class="icon" viewBox="0 0 1024 1024" version="1.1" xmlns="http://www.w3.org/2000/svg" p-id="6010" xmlns:xlink="http://www.w3.org/1999/xlink" width="200" height="200"><path d="M658.5856 85.333333l145.041067 222.011734L938.666667 392.021333V853.333333h-67.336534c-14.728533 69.4784-76.407467 121.6-150.263466 121.6-73.856 0-135.534933-52.130133-150.263467-121.6H478.805333c-14.728533 69.4784-76.407467 121.6-150.263466 121.6-73.856 0-135.534933-52.130133-150.263467-121.6H85.333333V85.333333h573.252267z m-250.922667 768H249.403733a85.358933 85.358933 0 0 0 79.1296 53.333334c35.8144 0 66.474667-22.058667 79.1296-53.333334z m392.533334 0H641.937067a85.358933 85.358933 0 0 0 79.1296 53.333334c35.8144 0 66.474667-22.058667 79.1296-53.333334zM621.636267 153.6H153.6v631.466667h716.8V429.789867l-115.729067-72.558934L621.636267 153.6z m-25.642667 202.410667L730.965333 546.133333H289.416533v-68.266666H598.784l-58.453333-82.338134 55.662933-39.517866z" fill="#c70026" p-id="6011"></path></svg>